<?xml version="1.0" encoding="utf-8"?>
<!-- Generator: Adobe Illustrator 17.1.0, SVG Export Plug-In . SVG Version: 6.00 Build 0)  -->
<!DOCTYPE svg PUBLIC "-//W3C//DTD SVG 1.1//EN" "http://www.w3.org/Graphics/SVG/1.1/DTD/svg11.dtd">
<svg version="1.1" id="Layer_1" xmlns="http://www.w3.org/2000/svg" xmlns:xlink="http://www.w3.org/1999/xlink" x="0px" y="0px"
	 viewBox="0 0 146.4 146.4" enable-background="new 0 0 146.4 146.4" xml:space="preserve">
<g>
	<path fill="#EC782C" d="M63.2,2.6c39-5.5,75.1,21.6,80.6,60.6s-21.6,75.1-60.6,80.6S8.1,122.2,2.6,83.2S24.2,8.1,63.2,2.6
		 M62.9,0.7C43.6,3.5,26.4,13.6,14.7,29.2C3,44.9-2,64.1,0.7,83.5s12.9,36.5,28.5,48.2c15.6,11.7,34.9,16.7,54.2,14
		c19.4-2.7,36.5-12.9,48.2-28.5c11.7-15.6,16.7-34.9,14-54.2c-2.7-19.4-12.9-36.5-28.5-48.2S82.3-2,62.9,0.7L62.9,0.7z"/>
	<circle fill="#EC782C" cx="73.1" cy="73.2" r="68.6"/>
	<g>
		<path fill="#FFFFFF" d="M31.8,69.8l2.3,0.1c0,1.3-0.3,2.3-0.9,3.1c-0.6,0.8-1.5,1.3-2.6,1.7c-1.4,0.4-2.8,0.2-3.9-0.5
			c-1.2-0.7-2-1.9-2.5-3.6c-0.5-1.8-0.4-3.3,0.2-4.6c0.7-1.3,1.7-2.1,3.2-2.5c1.3-0.4,2.5-0.3,3.5,0.3c0.6,0.3,1.2,0.9,1.7,1.7
			l-2,1.1c-0.3-0.5-0.7-0.9-1.2-1.1c-0.5-0.2-1-0.2-1.6-0.1c-0.8,0.2-1.4,0.7-1.7,1.4c-0.3,0.7-0.3,1.7,0,3c0.4,1.4,0.9,2.3,1.6,2.7
			c0.7,0.4,1.4,0.6,2.2,0.3c0.6-0.2,1-0.5,1.3-1C31.7,71.3,31.8,70.6,31.8,69.8z"/>
		<path fill="#FFFFFF" d="M36.9,72.6l-3-10.7l2.2-0.6l2.5,8.9l5.4-1.5l0.5,1.8L36.9,72.6z"/>
		<path fill="#FFFFFF" d="M46,70.1l-3-10.8l2.2-0.6l3,10.8L46,70.1z"/>
		<path fill="#FFFFFF" d="M56.1,63l2.3,0.1c0,1.3-0.3,2.3-0.9,3.1c-0.6,0.8-1.5,1.3-2.6,1.7c-1.4,0.4-2.8,0.2-3.9-0.5
			c-1.2-0.7-2-1.9-2.5-3.6c-0.5-1.8-0.4-3.3,0.2-4.6c0.7-1.3,1.7-2.1,3.2-2.5c1.3-0.4,2.5-0.3,3.5,0.3c0.6,0.3,1.2,0.9,1.7,1.7
			l-2,1.1c-0.3-0.5-0.7-0.9-1.2-1.1c-0.5-0.2-1-0.2-1.6-0.1c-0.8,0.2-1.4,0.7-1.7,1.4c-0.3,0.7-0.3,1.7,0,3c0.4,1.4,0.9,2.3,1.6,2.7
			c0.7,0.4,1.4,0.6,2.2,0.3c0.6-0.2,1-0.5,1.3-1C56,64.5,56.2,63.8,56.1,63z"/>
		<path fill="#FFFFFF" d="M61.2,65.8l-3-10.8l2.2-0.6l1.3,4.8l3.1-6l2.9-0.8l-2.9,5.3l6.1,5.4l-2.8,0.8l-4.4-4.2L62.5,62l0.9,3.3
			L61.2,65.8z"/>
		<path fill="#FFFFFF" d="M76.3,61.6l-3-10.8l2.2-0.6l1.2,4.3l4.3-1.2L79.8,49l2.2-0.6l3,10.8l-2.2,0.6l-1.3-4.7l-4.3,1.2l1.3,4.7
			L76.3,61.6z"/>
		<path fill="#FFFFFF" d="M87.2,58.6l-3-10.8l8-2.2l0.5,1.8L86.9,49l0.7,2.4l5.4-1.5l0.5,1.8l-5.4,1.5l0.8,2.9l6-1.7l0.5,1.8
			L87.2,58.6z"/>
		<path fill="#FFFFFF" d="M97.3,55.8l-3-10.8l4.6-1.3c1.2-0.3,2-0.5,2.6-0.4c0.6,0,1.1,0.3,1.5,0.7c0.5,0.4,0.8,0.9,0.9,1.6
			c0.2,0.8,0.2,1.5-0.2,2.2c-0.3,0.7-0.9,1.2-1.9,1.6c0.5,0.1,1,0.3,1.4,0.6c0.4,0.2,1,0.7,1.7,1.4l1.9,1.7l-2.6,0.7l-2.2-1.9
			c-0.8-0.7-1.3-1.1-1.6-1.3c-0.3-0.2-0.5-0.3-0.8-0.3c-0.3,0-0.6,0-1.1,0.2l-0.4,0.1l1.3,4.5L97.3,55.8z M97.7,48.9l1.6-0.4
			c1-0.3,1.7-0.5,1.9-0.7c0.2-0.2,0.4-0.4,0.5-0.6c0.1-0.3,0.1-0.5,0-0.9c-0.1-0.4-0.3-0.6-0.5-0.8c-0.3-0.2-0.6-0.2-0.9-0.2
			c-0.2,0-0.7,0.2-1.6,0.4L97,46.2L97.7,48.9z"/>
		<path fill="#FFFFFF" d="M108.2,52.8l-3-10.8l8-2.2l0.5,1.8l-5.8,1.6l0.7,2.4l5.4-1.5l0.5,1.8l-5.4,1.5l0.8,2.9l6-1.7l0.5,1.8
			L108.2,52.8z"/>
		<path fill="#FFFFFF" d="M33.5,93.1l-2.5-9L27.8,85l-0.5-1.8l8.6-2.4l0.5,1.8l-3.2,0.9l2.5,9L33.5,93.1z"/>
		<path fill="#FFFFFF" d="M38,86.1c-0.3-1.1-0.4-2.1-0.3-2.9c0.1-0.6,0.3-1.2,0.6-1.8c0.3-0.6,0.7-1,1.1-1.4
			c0.6-0.5,1.3-0.8,2.2-1.1c1.6-0.4,3-0.3,4.2,0.4c1.2,0.7,2.1,2,2.6,3.7c0.5,1.7,0.4,3.2-0.3,4.5s-1.8,2.1-3.4,2.5
			c-1.6,0.4-3,0.3-4.2-0.4C39.4,89,38.5,87.8,38,86.1z M40.3,85.4c0.3,1.2,0.9,2.1,1.6,2.5c0.7,0.5,1.5,0.6,2.4,0.3
			c0.9-0.2,1.5-0.8,1.9-1.5c0.4-0.8,0.4-1.8,0.1-3.1c-0.3-1.2-0.9-2.1-1.6-2.5c-0.7-0.5-1.5-0.6-2.4-0.3c-0.9,0.3-1.5,0.8-1.9,1.5
			C39.9,83.1,39.9,84.1,40.3,85.4z"/>
		<path fill="#FFFFFF" d="M56,86.8l-3-10.7l2.2-0.6l2.5,8.9l5.4-1.5l0.5,1.8L56,86.8z"/>
		<path fill="#FFFFFF" d="M65.1,84.3l-3-10.8l8-2.2l0.5,1.8l-5.8,1.6l0.7,2.4l5.4-1.5l0.5,1.8L66,78.9l0.8,2.9l6-1.7l0.5,1.8
			L65.1,84.3z"/>
		<path fill="#FFFFFF" d="M85,78.8l-2.4,0.7L81,77.2l-4.3,1.2l-0.2,2.7l-2.3,0.6l1.2-12l2.3-0.6L85,78.8z M79.8,75.6L77.1,72
			l-0.3,4.4L79.8,75.6z"/>
		<path fill="#FFFFFF" d="M86.1,78.4l-3-10.8l4.6-1.3c1.2-0.3,2-0.5,2.6-0.4c0.6,0,1.1,0.3,1.5,0.7c0.5,0.4,0.8,0.9,0.9,1.6
			c0.2,0.8,0.2,1.5-0.2,2.2c-0.3,0.7-0.9,1.2-1.9,1.6c0.5,0.1,1,0.3,1.4,0.6s1,0.7,1.7,1.4l1.9,1.7l-2.6,0.7L91,74.5
			c-0.8-0.7-1.3-1.1-1.6-1.3c-0.3-0.2-0.5-0.3-0.8-0.3c-0.3,0-0.6,0-1.1,0.2l-0.4,0.1l1.3,4.5L86.1,78.4z M86.6,71.6l1.6-0.4
			c1-0.3,1.7-0.5,1.9-0.7c0.2-0.2,0.4-0.4,0.5-0.6c0.1-0.3,0.1-0.5,0-0.9c-0.1-0.4-0.3-0.6-0.5-0.8c-0.3-0.2-0.6-0.2-0.9-0.2
			c-0.2,0-0.7,0.2-1.6,0.4l-1.7,0.5L86.6,71.6z"/>
		<path fill="#FFFFFF" d="M97.1,75.4l-3-10.8l2.1-0.6l6.4,6l-2-7.2l2-0.6l3,10.8l-2.2,0.6l-6.3-5.8l2,7L97.1,75.4z"/>
		<path fill="#FFFFFF" d="M36,111.9l-3-10.8l3.3-0.9l4,6.8l-0.1-7.9l3.3-0.9l3,10.8l-2,0.6l-2.4-8.5l0.2,9.1l-2.1,0.6l-4.5-7.9
			l2.4,8.5L36,111.9z"/>
		<path fill="#FFFFFF" d="M46.7,103.2c-0.3-1.1-0.4-2.1-0.3-2.9c0.1-0.6,0.3-1.2,0.6-1.8c0.3-0.6,0.7-1,1.1-1.4
			c0.6-0.5,1.3-0.8,2.2-1.1c1.6-0.4,3-0.3,4.2,0.4c1.2,0.7,2.1,2,2.6,3.7c0.5,1.7,0.4,3.2-0.3,4.5c-0.7,1.2-1.8,2.1-3.4,2.5
			c-1.6,0.4-3,0.3-4.2-0.4C48.1,106.1,47.2,104.9,46.7,103.2z M49,102.5c0.3,1.2,0.9,2.1,1.6,2.5c0.7,0.5,1.5,0.6,2.4,0.3
			c0.9-0.2,1.5-0.8,1.9-1.5c0.4-0.8,0.4-1.8,0.1-3.1c-0.3-1.2-0.9-2.1-1.6-2.5c-0.7-0.5-1.5-0.6-2.4-0.3c-0.9,0.3-1.5,0.8-1.9,1.5
			S48.6,101.2,49,102.5z"/>
		<path fill="#FFFFFF" d="M60.4,105.1l-3-10.8L62,93c1.2-0.3,2-0.5,2.6-0.4c0.6,0,1.1,0.3,1.5,0.7c0.5,0.4,0.8,0.9,0.9,1.6
			c0.2,0.8,0.2,1.5-0.2,2.2c-0.3,0.7-0.9,1.2-1.9,1.6c0.5,0.1,1,0.3,1.4,0.6c0.4,0.2,1,0.7,1.7,1.4l1.9,1.7l-2.6,0.7l-2.2-1.9
			c-0.8-0.7-1.3-1.1-1.6-1.3c-0.3-0.2-0.5-0.3-0.8-0.3c-0.3,0-0.6,0-1.1,0.2l-0.4,0.1l1.3,4.5L60.4,105.1z M60.9,98.3l1.6-0.4
			c1-0.3,1.7-0.5,1.9-0.7c0.2-0.2,0.4-0.4,0.5-0.6c0.1-0.3,0.1-0.5,0-0.9c-0.1-0.4-0.3-0.6-0.5-0.8c-0.3-0.2-0.6-0.2-0.9-0.2
			c-0.2,0-0.7,0.2-1.6,0.4l-1.7,0.5L60.9,98.3z"/>
		<path fill="#FFFFFF" d="M71.3,102.1l-3-10.8l8-2.2l0.5,1.8L71,92.5l0.7,2.4l5.4-1.5l0.5,1.8l-5.4,1.5l0.8,2.9l6-1.7l0.5,1.8
			L71.3,102.1z"/>
	</g>
</g>
</svg>
